<svg id="Layer_1" enable-background="new 0 0 512 512" height="512" viewBox="0 0 512 512" width="512" xmlns="http://www.w3.org/2000/svg"><g><g><path d="m237 68.154-170.8 116.798.945 1.381h50.181l119.674-81.835z" fill="#cdcdcd"/><path d="m278 70.206v36.343l116.674 79.784h50.181l.945-1.381z" fill="#bebebe"/><g><path d="m256 33-10.667 52.334 10.667 41.666c25.916 0 47-21.084 47-47s-21.084-47-47-47z" fill="#6e6e6e"/><path d="m209 80c0 25.916 21.084 47 47 47v-94c-25.916 0-47 21.084-47 47z" fill="#828282"/></g></g><g><path d="m497 186.667h-241l-11 129.153 11 148.18h241z" fill="#0dca71"/><path d="m15 186.667h241v277.333h-241z" fill="#04db7b"/><g><g><g><path d="m394.596 382.742h-30v-114.66l27.011.003 32.805 52.208v-52.368h30v113.512h-27.011l-32.805-52.208z" fill="#f7f0eb"/></g></g><path d="m342.778 298.312v-30h-65.412v114.043h65.412v-30h-35.412v-12.022h32.801v-30h-32.801v-12.021z" fill="#f7f0eb"/><path d="m221.453 267.925h-38.617-.048l.048 114.817h30v-36.92c3.346-.015 6.527-.026 8.617-.026 21.728 0 39.404-17.466 39.404-38.935 0-21.47-17.676-38.936-39.404-38.936zm0 47.871c-2.107 0-5.236.011-8.531.025-.015-3.486-.033-14.235-.042-17.896h8.574c5.098 0 9.404 4.092 9.404 8.936-.001 4.843-4.307 8.935-9.405 8.935z" fill="#fffbf5"/><g><path d="m110.997 382.742c-31.655 0-57.409-25.753-57.409-57.409s25.753-57.409 57.409-57.409c31.655 0 57.409 25.753 57.409 57.409s-25.754 57.409-57.409 57.409zm0-84.817c-15.113 0-27.409 12.295-27.409 27.409 0 15.113 12.295 27.409 27.409 27.409s27.409-12.295 27.409-27.409-12.296-27.409-27.409-27.409z" fill="#fffbf5"/></g></g><g><path d="m512 171.667h-256l-7 14.999 7 15.001h226v247.333h-226l-10 15 10 15h256z" fill="#efe2dd"/><path d="m30 449v-247.333h226v-30h-256v307.333h256v-30z" fill="#f7f0eb"/></g></g></g></svg>