<svg xmlns="http://www.w3.org/2000/svg" viewBox="0 0 212.16 272.49"><defs><style>.cls-1{fill:#956548;}.cls-1,.cls-8{stroke:#956548;}.cls-1,.cls-2,.cls-3,.cls-4,.cls-5,.cls-6,.cls-7,.cls-8{stroke-miterlimit:10;}.cls-2{fill:#ffb867;stroke:#ffb867;}.cls-3{fill:#fff;stroke:#fff;}.cls-4{fill:#0faeff;stroke:#0faeff;}.cls-5{fill:#333;stroke:#333;}.cls-6{fill:#bf8a4d;stroke:#bf8a4d;}.cls-7{stroke:#000;}.cls-8{fill:#39d700;}</style></defs><title>Portrait</title><g id="Layer_2" data-name="Layer 2"><g id="Layer_1-2" data-name="Layer 1"><rect class="cls-1" x="30.67" y="0.5" width="10.06" height="10.06"/><rect class="cls-1" x="40.72" y="0.5" width="10.06" height="10.06"/><rect class="cls-1" x="50.78" y="0.5" width="10.06" height="10.06"/><rect class="cls-1" x="60.83" y="0.5" width="10.06" height="10.06"/><rect class="cls-1" x="70.89" y="0.5" width="10.06" height="10.06"/><rect class="cls-1" x="80.94" y="0.5" width="10.06" height="10.06"/><rect class="cls-1" x="91" y="0.5" width="10.06" height="10.06"/><rect class="cls-1" x="101.05" y="0.5" width="10.06" height="10.06"/><rect class="cls-1" x="111.11" y="0.5" width="10.06" height="10.06"/><rect class="cls-1" x="121.16" y="0.5" width="10.06" height="10.06"/><rect class="cls-1" x="131.22" y="0.5" width="10.06" height="10.06"/><rect class="cls-1" x="141.27" y="0.5" width="10.06" height="10.06"/><rect class="cls-1" x="151.33" y="0.5" width="10.06" height="10.06"/><rect class="cls-1" x="20.61" y="10.56" width="10.06" height="10.06"/><rect class="cls-1" x="30.67" y="10.56" width="10.06" height="10.06"/><rect class="cls-1" x="40.72" y="10.56" width="10.06" height="10.06"/><rect class="cls-1" x="50.78" y="10.56" width="10.06" height="10.06"/><rect class="cls-1" x="60.83" y="10.56" width="10.06" height="10.06"/><rect class="cls-1" x="70.89" y="10.56" width="10.06" height="10.06"/><rect class="cls-1" x="80.94" y="10.56" width="10.06" height="10.06"/><rect class="cls-1" x="91" y="10.56" width="10.06" height="10.06"/><rect class="cls-1" x="101.05" y="10.56" width="10.06" height="10.06"/><rect class="cls-1" x="111.11" y="10.56" width="10.06" height="10.06"/><rect class="cls-1" x="121.16" y="10.56" width="10.06" height="10.06"/><rect class="cls-1" x="131.22" y="10.56" width="10.06" height="10.06"/><rect class="cls-1" x="141.27" y="10.56" width="10.06" height="10.06"/><rect class="cls-1" x="151.33" y="10.56" width="10.06" height="10.06"/><rect class="cls-1" x="161.38" y="10.56" width="10.06" height="10.06"/><rect class="cls-1" x="10.56" y="20.61" width="10.06" height="10.06"/><rect class="cls-1" x="20.61" y="20.61" width="10.06" height="10.06"/><rect class="cls-1" x="30.67" y="20.61" width="10.06" height="10.06"/><rect class="cls-1" x="40.72" y="20.61" width="10.06" height="10.06"/><rect class="cls-1" x="50.78" y="20.61" width="10.06" height="10.06"/><rect class="cls-1" x="60.83" y="20.61" width="10.06" height="10.06"/><rect class="cls-1" x="70.89" y="20.61" width="10.06" height="10.06"/><rect class="cls-1" x="80.94" y="20.61" width="10.06" height="10.06"/><rect class="cls-1" x="91" y="20.61" width="10.06" height="10.06"/><rect class="cls-1" x="101.05" y="20.61" width="10.06" height="10.06"/><rect class="cls-1" x="111.11" y="20.61" width="10.06" height="10.06"/><rect class="cls-1" x="121.16" y="20.61" width="10.06" height="10.06"/><rect class="cls-1" x="131.22" y="20.61" width="10.06" height="10.06"/><rect class="cls-1" x="141.27" y="20.61" width="10.06" height="10.06"/><rect class="cls-1" x="151.33" y="20.61" width="10.06" height="10.06"/><rect class="cls-1" x="161.38" y="20.61" width="10.06" height="10.06"/><rect class="cls-1" x="171.44" y="20.61" width="10.06" height="10.06"/><rect class="cls-1" x="10.56" y="30.67" width="10.06" height="10.06"/><rect class="cls-1" x="20.61" y="30.67" width="10.06" height="10.06"/><rect class="cls-1" x="30.67" y="30.67" width="10.06" height="10.06"/><rect class="cls-1" x="40.72" y="30.67" width="10.06" height="10.06"/><rect class="cls-1" x="50.78" y="30.67" width="10.06" height="10.06"/><rect class="cls-1" x="60.83" y="30.67" width="10.06" height="10.06"/><rect class="cls-1" x="70.89" y="30.67" width="10.06" height="10.06"/><rect class="cls-1" x="80.94" y="30.67" width="10.06" height="10.06"/><rect class="cls-1" x="91" y="30.67" width="10.06" height="10.06"/><rect class="cls-1" x="101.05" y="30.67" width="10.06" height="10.06"/><rect class="cls-1" x="111.11" y="30.67" width="10.06" height="10.06"/><rect class="cls-1" x="121.16" y="30.67" width="10.06" height="10.06"/><rect class="cls-1" x="131.22" y="30.67" width="10.06" height="10.06"/><rect class="cls-1" x="141.27" y="30.67" width="10.06" height="10.06"/><rect class="cls-1" x="151.33" y="30.67" width="10.06" height="10.06"/><rect class="cls-1" x="161.38" y="30.67" width="10.06" height="10.06"/><rect class="cls-1" x="171.44" y="30.67" width="10.06" height="10.06"/><rect class="cls-1" x="10.56" y="40.72" width="10.06" height="10.06"/><rect class="cls-1" x="20.61" y="40.72" width="10.06" height="10.06"/><rect class="cls-2" x="30.67" y="40.72" width="10.06" height="10.06"/><rect class="cls-2" x="40.72" y="40.72" width="10.06" height="10.06"/><rect class="cls-2" x="50.78" y="40.72" width="10.06" height="10.06"/><rect class="cls-2" x="60.83" y="40.72" width="10.06" height="10.06"/><rect class="cls-2" x="70.89" y="40.72" width="10.06" height="10.06"/><rect class="cls-2" x="80.94" y="40.72" width="10.06" height="10.06"/><rect class="cls-2" x="91" y="40.72" width="10.06" height="10.06"/><rect class="cls-2" x="101.05" y="40.72" width="10.06" height="10.06"/><rect class="cls-2" x="111.11" y="40.72" width="10.06" height="10.06"/><rect class="cls-2" x="121.16" y="40.72" width="10.06" height="10.06"/><rect class="cls-2" x="131.22" y="40.72" width="10.06" height="10.06"/><rect class="cls-2" x="141.27" y="40.72" width="10.06" height="10.06"/><rect class="cls-1" x="151.33" y="40.72" width="10.06" height="10.06"/><rect class="cls-1" x="161.38" y="40.72" width="10.06" height="10.06"/><rect class="cls-1" x="171.44" y="40.72" width="10.06" height="10.06"/><rect class="cls-1" x="181.49" y="40.72" width="10.06" height="10.06"/><rect class="cls-1" x="10.56" y="50.78" width="10.06" height="10.06"/><rect class="cls-2" x="20.61" y="50.78" width="10.06" height="10.06"/><rect class="cls-2" x="30.67" y="50.78" width="10.06" height="10.06"/><rect class="cls-2" x="40.72" y="50.78" width="10.06" height="10.06"/><rect class="cls-2" x="50.78" y="50.78" width="10.06" height="10.06"/><rect class="cls-2" x="60.83" y="50.78" width="10.06" height="10.06"/><rect class="cls-2" x="70.89" y="50.78" width="10.06" height="10.06"/><rect class="cls-2" x="80.94" y="50.78" width="10.06" height="10.06"/><rect class="cls-2" x="91" y="50.78" width="10.06" height="10.06"/><rect class="cls-2" x="101.05" y="50.78" width="10.06" height="10.06"/><rect class="cls-2" x="111.11" y="50.78" width="10.06" height="10.06"/><rect class="cls-2" x="121.16" y="50.78" width="10.06" height="10.06"/><rect class="cls-2" x="131.22" y="50.78" width="10.06" height="10.06"/><rect class="cls-2" x="141.27" y="50.78" width="10.06" height="10.06"/><rect class="cls-2" x="151.33" y="50.78" width="10.06" height="10.06"/><rect class="cls-1" x="161.38" y="50.78" width="10.06" height="10.06"/><rect class="cls-1" x="171.44" y="50.78" width="10.06" height="10.06"/><rect class="cls-1" x="181.49" y="50.78" width="10.06" height="10.06"/><rect class="cls-1" x="191.55" y="50.78" width="10.06" height="10.06"/><rect class="cls-1" x="10.56" y="60.83" width="10.06" height="10.06"/><rect class="cls-2" x="20.61" y="60.83" width="10.06" height="10.06"/><rect class="cls-2" x="30.67" y="60.83" width="10.06" height="10.06"/><rect class="cls-2" x="40.72" y="60.83" width="10.06" height="10.06"/><rect class="cls-2" x="50.78" y="60.83" width="10.06" height="10.06"/><rect class="cls-2" x="60.83" y="60.83" width="10.06" height="10.06"/><rect class="cls-2" x="70.89" y="60.83" width="10.06" height="10.06"/><rect class="cls-2" x="80.94" y="60.83" width="10.06" height="10.06"/><rect class="cls-2" x="91" y="60.83" width="10.06" height="10.06"/><rect class="cls-2" x="101.05" y="60.83" width="10.06" height="10.06"/><rect class="cls-2" x="111.11" y="60.83" width="10.06" height="10.06"/><rect class="cls-2" x="121.16" y="60.83" width="10.06" height="10.06"/><rect class="cls-2" x="131.22" y="60.83" width="10.06" height="10.06"/><rect class="cls-2" x="141.27" y="60.83" width="10.06" height="10.06"/><rect class="cls-2" x="151.33" y="60.83" width="10.06" height="10.06"/><rect class="cls-1" x="161.38" y="60.83" width="10.06" height="10.06"/><rect class="cls-1" x="171.44" y="60.83" width="10.06" height="10.06"/><rect class="cls-1" x="181.49" y="60.83" width="10.06" height="10.06"/><rect class="cls-1" x="191.55" y="60.83" width="10.06" height="10.06"/><rect class="cls-2" x="10.56" y="70.89" width="10.06" height="10.06"/><rect class="cls-2" x="20.61" y="70.89" width="10.06" height="10.06"/><rect class="cls-2" x="30.67" y="70.89" width="10.06" height="10.06"/><rect class="cls-2" x="40.72" y="70.89" width="10.06" height="10.06"/><rect class="cls-2" x="50.78" y="70.89" width="10.06" height="10.06"/><rect class="cls-2" x="60.83" y="70.89" width="10.06" height="10.06"/><rect class="cls-2" x="70.89" y="70.89" width="10.06" height="10.06"/><rect class="cls-2" x="80.94" y="70.89" width="10.06" height="10.06"/><rect class="cls-2" x="91" y="70.89" width="10.06" height="10.06"/><rect class="cls-2" x="101.05" y="70.89" width="10.06" height="10.06"/><rect class="cls-2" x="111.11" y="70.89" width="10.06" height="10.06"/><rect class="cls-2" x="121.16" y="70.89" width="10.06" height="10.06"/><rect class="cls-2" x="131.22" y="70.89" width="10.06" height="10.06"/><rect class="cls-2" x="141.27" y="70.89" width="10.06" height="10.06"/><rect class="cls-2" x="151.33" y="70.89" width="10.06" height="10.06"/><rect class="cls-1" x="161.38" y="70.89" width="10.06" height="10.06"/><rect class="cls-1" x="171.44" y="70.89" width="10.06" height="10.06"/><rect class="cls-1" x="181.49" y="70.89" width="10.06" height="10.06"/><rect class="cls-1" x="191.55" y="70.89" width="10.06" height="10.06"/><rect class="cls-2" x="10.56" y="80.94" width="10.06" height="10.06"/><rect class="cls-1" x="20.61" y="80.94" width="10.06" height="10.06"/><rect class="cls-1" x="30.67" y="80.94" width="10.06" height="10.06"/><rect class="cls-1" x="40.72" y="80.94" width="10.06" height="10.06"/><rect class="cls-1" x="50.78" y="80.94" width="10.06" height="10.06"/><rect class="cls-2" x="60.83" y="80.94" width="10.06" height="10.06"/><rect class="cls-2" x="70.89" y="80.94" width="10.06" height="10.06"/><rect class="cls-2" x="80.94" y="80.94" width="10.06" height="10.06"/><rect class="cls-2" x="91" y="80.94" width="10.06" height="10.06"/><rect class="cls-1" x="101.05" y="80.94" width="10.06" height="10.06"/><rect class="cls-1" x="111.11" y="80.94" width="10.06" height="10.06"/><rect class="cls-1" x="121.16" y="80.94" width="10.06" height="10.06"/><rect class="cls-1" x="131.22" y="80.94" width="10.06" height="10.06"/><rect class="cls-2" x="141.27" y="80.94" width="10.06" height="10.06"/><rect class="cls-2" x="151.33" y="80.94" width="10.06" height="10.06"/><rect class="cls-2" x="161.38" y="80.94" width="10.06" height="10.06"/><rect class="cls-1" x="171.44" y="80.94" width="10.06" height="10.06"/><rect class="cls-1" x="181.49" y="80.94" width="10.06" height="10.06"/><rect class="cls-1" x="191.55" y="80.94" width="10.06" height="10.06"/><rect class="cls-2" x="10.56" y="91" width="10.06" height="10.06"/><rect class="cls-2" x="20.61" y="91" width="10.06" height="10.06"/><rect class="cls-2" x="30.67" y="91" width="10.06" height="10.06"/><rect class="cls-2" x="40.72" y="91" width="10.06" height="10.06"/><rect class="cls-2" x="50.78" y="91" width="10.06" height="10.06"/><rect class="cls-1" x="60.83" y="91" width="10.06" height="10.06"/><rect class="cls-2" x="70.89" y="91" width="10.06" height="10.06"/><rect class="cls-2" x="80.94" y="91" width="10.06" height="10.06"/><rect class="cls-2" x="91" y="91" width="10.06" height="10.06"/><rect class="cls-2" x="101.05" y="91" width="10.06" height="10.06"/><rect class="cls-2" x="111.11" y="91" width="10.06" height="10.06"/><rect class="cls-2" x="121.16" y="91" width="10.06" height="10.06"/><rect class="cls-2" x="131.22" y="91" width="10.06" height="10.06"/><rect class="cls-1" x="141.27" y="91" width="10.06" height="10.06"/><rect class="cls-2" x="151.33" y="91" width="10.06" height="10.06"/><rect class="cls-2" x="161.38" y="91" width="10.06" height="10.06"/><rect class="cls-1" x="171.44" y="91" width="10.06" height="10.06"/><rect class="cls-1" x="181.49" y="91" width="10.06" height="10.06"/><rect class="cls-1" x="191.55" y="91" width="10.06" height="10.06"/><rect class="cls-2" x="10.56" y="101.05" width="10.06" height="10.06"/><rect class="cls-2" x="20.61" y="101.05" width="10.06" height="10.06"/><rect class="cls-3" x="30.67" y="101.05" width="10.06" height="10.06"/><rect class="cls-3" x="40.72" y="101.05" width="10.06" height="10.06"/><rect class="cls-2" x="50.78" y="101.05" width="10.06" height="10.06"/><rect class="cls-2" x="60.83" y="101.05" width="10.06" height="10.06"/><rect class="cls-2" x="70.89" y="101.05" width="10.06" height="10.06"/><rect class="cls-2" x="80.94" y="101.05" width="10.06" height="10.06"/><rect class="cls-2" x="91" y="101.05" width="10.06" height="10.06"/><rect class="cls-2" x="101.05" y="101.05" width="10.06" height="10.06"/><rect class="cls-3" x="111.11" y="101.05" width="10.06" height="10.06"/><rect class="cls-3" x="121.16" y="101.05" width="10.06" height="10.06"/><rect class="cls-2" x="131.22" y="101.05" width="10.06" height="10.06"/><rect class="cls-2" x="141.27" y="101.05" width="10.06" height="10.06"/><rect class="cls-2" x="151.33" y="101.05" width="10.06" height="10.06"/><rect class="cls-2" x="161.38" y="101.05" width="10.06" height="10.06"/><rect class="cls-1" x="171.44" y="101.05" width="10.06" height="10.06"/><rect class="cls-1" x="181.49" y="101.05" width="10.06" height="10.06"/><rect class="cls-1" x="191.55" y="101.05" width="10.06" height="10.06"/><rect class="cls-2" x="10.56" y="111.11" width="10.06" height="10.06"/><rect class="cls-2" x="20.61" y="111.11" width="10.06" height="10.06"/><rect class="cls-4" x="30.67" y="111.11" width="10.06" height="10.06"/><rect class="cls-5" x="40.72" y="111.11" width="10.06" height="10.06"/><rect class="cls-3" x="50.78" y="111.11" width="10.06" height="10.06"/><rect class="cls-2" x="60.83" y="111.11" width="10.06" height="10.06"/><rect class="cls-2" x="70.89" y="111.11" width="10.06" height="10.06"/><rect class="cls-2" x="80.94" y="111.11" width="10.06" height="10.06"/><rect class="cls-2" x="91" y="111.11" width="10.06" height="10.06"/><rect class="cls-2" x="101.05" y="111.11" width="10.06" height="10.06"/><rect class="cls-4" x="111.11" y="111.11" width="10.06" height="10.06"/><rect class="cls-5" x="121.16" y="111.11" width="10.06" height="10.06"/><rect class="cls-3" x="131.22" y="111.11" width="10.06" height="10.06"/><rect class="cls-2" x="141.27" y="111.11" width="10.06" height="10.06"/><rect class="cls-2" x="151.33" y="111.11" width="10.06" height="10.06"/><rect class="cls-2" x="161.38" y="111.11" width="10.06" height="10.06"/><rect class="cls-1" x="171.44" y="111.11" width="10.06" height="10.06"/><rect class="cls-1" x="181.49" y="111.11" width="10.06" height="10.06"/><rect class="cls-2" x="191.55" y="111.11" width="10.06" height="10.06"/><rect class="cls-2" x="201.6" y="111.11" width="10.06" height="10.06"/><rect class="cls-6" x="0.5" y="121.16" width="10.06" height="10.06"/><rect class="cls-2" x="10.56" y="121.16" width="10.06" height="10.06"/><rect class="cls-2" x="20.61" y="121.16" width="10.06" height="10.06"/><rect class="cls-4" x="30.67" y="121.16" width="10.06" height="10.06"/><rect class="cls-4" x="40.72" y="121.16" width="10.06" height="10.06"/><rect class="cls-3" x="50.78" y="121.16" width="10.06" height="10.06"/><rect class="cls-2" x="60.83" y="121.16" width="10.06" height="10.06"/><rect class="cls-2" x="70.89" y="121.16" width="10.06" height="10.06"/><rect class="cls-2" x="80.94" y="121.16" width="10.06" height="10.06"/><rect class="cls-2" x="91" y="121.16" width="10.06" height="10.06"/><rect class="cls-2" x="101.05" y="121.16" width="10.06" height="10.06"/><rect class="cls-4" x="111.11" y="121.16" width="10.06" height="10.06"/><rect class="cls-4" x="121.16" y="121.16" width="10.06" height="10.06"/><rect class="cls-3" x="131.22" y="121.16" width="10.06" height="10.06"/><rect class="cls-2" x="141.27" y="121.16" width="10.06" height="10.06"/><rect class="cls-2" x="151.33" y="121.16" width="10.06" height="10.06"/><rect class="cls-2" x="161.38" y="121.16" width="10.06" height="10.06"/><rect class="cls-1" x="171.44" y="121.16" width="10.06" height="10.06"/><rect class="cls-2" x="181.49" y="121.16" width="10.06" height="10.06"/><rect class="cls-2" x="191.55" y="121.16" width="10.06" height="10.06"/><rect class="cls-2" x="201.6" y="121.16" width="10.06" height="10.06"/><rect class="cls-6" x="0.5" y="131.22" width="10.06" height="10.06"/><rect class="cls-2" x="10.56" y="131.22" width="10.06" height="10.06"/><rect class="cls-2" x="20.61" y="131.22" width="10.06" height="10.06"/><rect class="cls-2" x="30.67" y="131.22" width="10.06" height="10.06"/><rect class="cls-2" x="40.72" y="131.22" width="10.06" height="10.06"/><rect class="cls-2" x="50.78" y="131.22" width="10.06" height="10.06"/><rect class="cls-2" x="60.83" y="131.22" width="10.06" height="10.06"/><rect class="cls-2" x="70.89" y="131.22" width="10.06" height="10.06"/><rect class="cls-2" x="80.94" y="131.22" width="10.06" height="10.06"/><rect class="cls-2" x="91" y="131.22" width="10.06" height="10.06"/><rect class="cls-2" x="101.05" y="131.22" width="10.06" height="10.06"/><rect class="cls-2" x="111.11" y="131.22" width="10.06" height="10.06"/><rect class="cls-2" x="121.16" y="131.22" width="10.06" height="10.06"/><rect class="cls-2" x="131.22" y="131.22" width="10.06" height="10.06"/><rect class="cls-2" x="141.27" y="131.22" width="10.06" height="10.06"/><rect class="cls-2" x="151.33" y="131.22" width="10.06" height="10.06"/><rect class="cls-2" x="161.38" y="131.22" width="10.06" height="10.06"/><rect class="cls-1" x="171.44" y="131.22" width="10.06" height="10.06"/><rect class="cls-2" x="181.49" y="131.22" width="10.06" height="10.06"/><rect class="cls-6" x="191.55" y="131.22" width="10.06" height="10.06"/><rect class="cls-2" x="201.6" y="131.22" width="10.06" height="10.06"/><rect class="cls-6" x="0.5" y="141.27" width="10.06" height="10.06"/><rect class="cls-2" x="10.56" y="141.27" width="10.06" height="10.06"/><rect class="cls-2" x="20.61" y="141.27" width="10.06" height="10.06"/><rect class="cls-2" x="30.67" y="141.27" width="10.06" height="10.06"/><rect class="cls-2" x="40.72" y="141.27" width="10.06" height="10.06"/><rect class="cls-2" x="50.78" y="141.27" width="10.06" height="10.06"/><rect class="cls-2" x="60.83" y="141.27" width="10.06" height="10.06"/><rect class="cls-2" x="70.89" y="141.27" width="10.06" height="10.06"/><rect class="cls-6" x="80.94" y="141.27" width="10.06" height="10.06"/><rect class="cls-2" x="91" y="141.27" width="10.06" height="10.06"/><rect class="cls-2" x="101.05" y="141.27" width="10.06" height="10.06"/><rect class="cls-2" x="111.11" y="141.27" width="10.06" height="10.06"/><rect class="cls-2" x="121.16" y="141.27" width="10.06" height="10.06"/><rect class="cls-2" x="131.22" y="141.27" width="10.06" height="10.06"/><rect class="cls-2" x="141.27" y="141.27" width="10.06" height="10.06"/><rect class="cls-2" x="151.33" y="141.27" width="10.06" height="10.06"/><rect class="cls-2" x="161.38" y="141.27" width="10.06" height="10.06"/><rect class="cls-1" x="171.44" y="141.27" width="10.06" height="10.06"/><rect class="cls-2" x="181.49" y="141.27" width="10.06" height="10.06"/><rect class="cls-6" x="191.55" y="141.27" width="10.06" height="10.06"/><rect class="cls-2" x="201.6" y="141.27" width="10.06" height="10.06"/><rect class="cls-6" x="0.5" y="151.33" width="10.06" height="10.06"/><rect class="cls-2" x="10.56" y="151.33" width="10.06" height="10.06"/><rect class="cls-2" x="20.61" y="151.33" width="10.06" height="10.06"/><rect class="cls-2" x="30.67" y="151.33" width="10.06" height="10.06"/><rect class="cls-2" x="40.72" y="151.33" width="10.06" height="10.06"/><rect class="cls-2" x="50.78" y="151.33" width="10.06" height="10.06"/><rect class="cls-2" x="60.83" y="151.33" width="10.06" height="10.06"/><rect class="cls-2" x="70.89" y="151.33" width="10.06" height="10.06"/><rect class="cls-2" x="80.94" y="151.33" width="10.06" height="10.06"/><rect class="cls-6" x="91" y="151.33" width="10.06" height="10.06"/><rect class="cls-2" x="101.05" y="151.33" width="10.06" height="10.06"/><rect class="cls-2" x="111.11" y="151.33" width="10.06" height="10.06"/><rect class="cls-2" x="121.16" y="151.33" width="10.06" height="10.06"/><rect class="cls-2" x="131.22" y="151.33" width="10.06" height="10.06"/><rect class="cls-2" x="141.27" y="151.33" width="10.06" height="10.06"/><rect class="cls-2" x="151.33" y="151.33" width="10.06" height="10.06"/><rect class="cls-2" x="161.38" y="151.33" width="10.06" height="10.06"/><rect class="cls-1" x="171.44" y="151.33" width="10.06" height="10.06"/><rect class="cls-2" x="181.49" y="151.33" width="10.06" height="10.06"/><rect class="cls-2" x="191.55" y="151.33" width="10.06" height="10.06"/><rect class="cls-2" x="201.6" y="151.33" width="10.06" height="10.06"/><rect class="cls-6" x="0.5" y="161.38" width="10.06" height="10.06"/><rect class="cls-2" x="10.56" y="161.38" width="10.06" height="10.06"/><rect class="cls-2" x="20.61" y="161.38" width="10.06" height="10.06"/><rect class="cls-2" x="30.67" y="161.38" width="10.06" height="10.06"/><rect class="cls-2" x="40.72" y="161.38" width="10.06" height="10.06"/><rect class="cls-2" x="50.78" y="161.38" width="10.06" height="10.06"/><rect class="cls-2" x="60.83" y="161.38" width="10.06" height="10.06"/><rect class="cls-2" x="70.89" y="161.38" width="10.06" height="10.06"/><rect class="cls-2" x="80.94" y="161.38" width="10.06" height="10.06"/><rect class="cls-6" x="91" y="161.38" width="10.06" height="10.06"/><rect class="cls-2" x="101.05" y="161.38" width="10.06" height="10.06"/><rect class="cls-2" x="111.11" y="161.38" width="10.06" height="10.06"/><rect class="cls-2" x="121.16" y="161.38" width="10.06" height="10.06"/><rect class="cls-2" x="131.22" y="161.38" width="10.06" height="10.06"/><rect class="cls-2" x="141.27" y="161.38" width="10.06" height="10.06"/><rect class="cls-2" x="151.33" y="161.38" width="10.06" height="10.06"/><rect class="cls-2" x="161.38" y="161.38" width="10.06" height="10.06"/><rect class="cls-1" x="171.44" y="161.38" width="10.06" height="10.06"/><rect class="cls-2" x="181.49" y="161.38" width="10.06" height="10.06"/><rect class="cls-2" x="191.55" y="161.38" width="10.06" height="10.06"/><rect class="cls-2" x="10.56" y="171.44" width="10.06" height="10.06"/><rect class="cls-2" x="20.61" y="171.44" width="10.06" height="10.06"/><rect class="cls-2" x="30.67" y="171.44" width="10.06" height="10.06"/><rect class="cls-2" x="40.72" y="171.44" width="10.06" height="10.06"/><rect class="cls-2" x="50.78" y="171.44" width="10.06" height="10.06"/><rect class="cls-2" x="60.83" y="171.44" width="10.06" height="10.06"/><rect class="cls-2" x="70.89" y="171.44" width="10.06" height="10.06"/><rect class="cls-2" x="80.94" y="171.44" width="10.06" height="10.06"/><rect class="cls-2" x="91" y="171.44" width="10.06" height="10.06"/><rect class="cls-2" x="101.05" y="171.44" width="10.06" height="10.06"/><rect class="cls-2" x="111.11" y="171.44" width="10.06" height="10.06"/><rect class="cls-2" x="121.16" y="171.44" width="10.06" height="10.06"/><rect class="cls-2" x="131.22" y="171.44" width="10.06" height="10.06"/><rect class="cls-2" x="141.27" y="171.44" width="10.06" height="10.06"/><rect class="cls-2" x="151.33" y="171.44" width="10.06" height="10.06"/><rect class="cls-1" x="161.38" y="171.44" width="10.06" height="10.06"/><rect class="cls-1" x="171.44" y="171.44" width="10.06" height="10.06"/><rect class="cls-2" x="181.49" y="171.44" width="10.06" height="10.06"/><rect class="cls-2" x="10.56" y="181.49" width="10.06" height="10.06"/><rect class="cls-2" x="20.61" y="181.49" width="10.06" height="10.06"/><rect class="cls-2" x="30.67" y="181.49" width="10.06" height="10.06"/><rect class="cls-1" x="40.72" y="181.49" width="10.06" height="10.06"/><rect class="cls-1" x="50.78" y="181.49" width="10.06" height="10.06"/><rect class="cls-1" x="60.83" y="181.49" width="10.06" height="10.06"/><rect class="cls-1" x="70.89" y="181.49" width="10.06" height="10.06"/><rect class="cls-1" x="80.94" y="181.49" width="10.06" height="10.06"/><rect class="cls-1" x="91" y="181.49" width="10.06" height="10.06"/><rect class="cls-1" x="101.05" y="181.49" width="10.06" height="10.06"/><rect class="cls-1" x="111.11" y="181.49" width="10.06" height="10.06"/><rect class="cls-2" x="121.16" y="181.49" width="10.06" height="10.06"/><rect class="cls-2" x="131.22" y="181.49" width="10.06" height="10.06"/><rect class="cls-2" x="141.27" y="181.49" width="10.06" height="10.06"/><rect class="cls-2" x="151.33" y="181.49" width="10.06" height="10.06"/><rect class="cls-1" x="161.38" y="181.49" width="10.06" height="10.06"/><rect class="cls-1" x="171.44" y="181.49" width="10.06" height="10.06"/><rect class="cls-1" x="10.56" y="191.55" width="10.06" height="10.06"/><rect class="cls-1" x="20.61" y="191.55" width="10.06" height="10.06"/><rect class="cls-1" x="30.67" y="191.55" width="10.06" height="10.06"/><rect class="cls-1" x="40.72" y="191.55" width="10.06" height="10.06"/><rect class="cls-1" x="50.78" y="191.55" width="10.06" height="10.06"/><rect class="cls-1" x="60.83" y="191.55" width="10.06" height="10.06"/><rect class="cls-1" x="70.89" y="191.55" width="10.06" height="10.06"/><rect class="cls-1" x="80.94" y="191.55" width="10.06" height="10.06"/><rect class="cls-1" x="91" y="191.55" width="10.06" height="10.06"/><rect class="cls-1" x="101.05" y="191.55" width="10.06" height="10.06"/><rect class="cls-1" x="111.11" y="191.55" width="10.06" height="10.06"/><rect class="cls-1" x="121.16" y="191.55" width="10.06" height="10.06"/><rect class="cls-1" x="131.22" y="191.55" width="10.06" height="10.06"/><rect class="cls-1" x="141.27" y="191.55" width="10.06" height="10.06"/><rect class="cls-1" x="151.33" y="191.55" width="10.06" height="10.06"/><rect class="cls-1" x="161.38" y="191.55" width="10.06" height="10.06"/><rect class="cls-1" x="171.44" y="191.55" width="10.06" height="10.06"/><rect class="cls-1" x="10.56" y="201.6" width="10.06" height="10.06"/><rect class="cls-1" x="20.61" y="201.6" width="10.06" height="10.06"/><rect class="cls-1" x="30.67" y="201.6" width="10.06" height="10.06"/><rect class="cls-1" x="40.72" y="201.6" width="10.06" height="10.06"/><rect class="cls-1" x="50.78" y="201.6" width="10.06" height="10.06"/><rect class="cls-1" x="60.83" y="201.6" width="10.06" height="10.06"/><rect class="cls-1" x="70.89" y="201.6" width="10.06" height="10.06"/><rect class="cls-1" x="80.94" y="201.6" width="10.06" height="10.06"/><rect class="cls-1" x="91" y="201.6" width="10.06" height="10.06"/><rect class="cls-1" x="101.05" y="201.6" width="10.06" height="10.06"/><rect class="cls-1" x="111.11" y="201.6" width="10.06" height="10.06"/><rect class="cls-1" x="121.16" y="201.6" width="10.06" height="10.06"/><rect class="cls-1" x="131.22" y="201.6" width="10.06" height="10.06"/><rect class="cls-1" x="141.27" y="201.6" width="10.06" height="10.06"/><rect class="cls-1" x="151.33" y="201.6" width="10.06" height="10.06"/><rect class="cls-1" x="161.38" y="201.6" width="10.06" height="10.06"/><rect class="cls-1" x="171.44" y="201.6" width="10.06" height="10.06"/><rect class="cls-1" x="20.61" y="211.66" width="10.06" height="10.06"/><rect class="cls-1" x="30.67" y="211.66" width="10.06" height="10.06"/><rect class="cls-7" x="40.72" y="211.66" width="10.06" height="10.06"/><rect class="cls-3" x="50.78" y="211.66" width="10.06" height="10.06"/><rect class="cls-3" x="60.83" y="211.66" width="10.06" height="10.06"/><rect class="cls-3" x="70.89" y="211.66" width="10.06" height="10.06"/><rect class="cls-3" x="80.94" y="211.66" width="10.06" height="10.06"/><rect class="cls-3" x="91" y="211.66" width="10.06" height="10.06"/><rect class="cls-3" x="101.05" y="211.66" width="10.06" height="10.06"/><rect class="cls-7" x="111.11" y="211.66" width="10.06" height="10.06"/><rect class="cls-1" x="121.16" y="211.66" width="10.06" height="10.06"/><rect class="cls-1" x="131.22" y="211.66" width="10.06" height="10.06"/><rect class="cls-1" x="141.27" y="211.66" width="10.06" height="10.06"/><rect class="cls-1" x="151.33" y="211.66" width="10.06" height="10.06"/><rect class="cls-1" x="161.38" y="211.66" width="10.06" height="10.06"/><rect class="cls-1" x="20.61" y="221.71" width="10.06" height="10.06"/><rect class="cls-1" x="30.67" y="221.71" width="10.06" height="10.06"/><rect class="cls-1" x="40.72" y="221.71" width="10.06" height="10.06"/><rect class="cls-7" x="50.78" y="221.71" width="10.06" height="10.06"/><rect class="cls-3" x="60.83" y="221.71" width="10.06" height="10.06"/><rect class="cls-3" x="70.89" y="221.71" width="10.06" height="10.06"/><rect class="cls-3" x="80.94" y="221.71" width="10.06" height="10.06"/><rect class="cls-3" x="91" y="221.71" width="10.06" height="10.06"/><rect class="cls-7" x="101.05" y="221.71" width="10.06" height="10.06"/><rect class="cls-1" x="111.11" y="221.71" width="10.06" height="10.06"/><rect class="cls-1" x="121.16" y="221.71" width="10.06" height="10.06"/><rect class="cls-1" x="131.22" y="221.71" width="10.06" height="10.06"/><rect class="cls-1" x="141.27" y="221.71" width="10.06" height="10.06"/><rect class="cls-1" x="151.33" y="221.71" width="10.06" height="10.06"/><rect class="cls-1" x="30.67" y="231.77" width="10.06" height="10.06"/><rect class="cls-1" x="40.72" y="231.77" width="10.06" height="10.06"/><rect class="cls-1" x="50.78" y="231.77" width="10.06" height="10.06"/><rect class="cls-7" x="60.83" y="231.77" width="10.06" height="10.06"/><rect class="cls-7" x="70.89" y="231.77" width="10.06" height="10.06"/><rect class="cls-7" x="80.94" y="231.77" width="10.06" height="10.06"/><rect class="cls-7" x="91" y="231.77" width="10.06" height="10.06"/><rect class="cls-1" x="101.05" y="231.77" width="10.06" height="10.06"/><rect class="cls-1" x="111.11" y="231.77" width="10.06" height="10.06"/><rect class="cls-1" x="121.16" y="231.77" width="10.06" height="10.06"/><rect class="cls-1" x="131.22" y="231.77" width="10.06" height="10.06"/><rect class="cls-1" x="141.27" y="231.77" width="10.06" height="10.06"/><rect class="cls-1" x="30.67" y="241.82" width="10.06" height="10.06"/><rect class="cls-1" x="40.72" y="241.82" width="10.06" height="10.06"/><rect class="cls-1" x="50.78" y="241.82" width="10.06" height="10.06"/><rect class="cls-1" x="60.83" y="241.82" width="10.06" height="10.06"/><rect class="cls-1" x="70.89" y="241.82" width="10.06" height="10.06"/><rect class="cls-1" x="80.94" y="241.82" width="10.06" height="10.06"/><rect class="cls-1" x="91" y="241.82" width="10.06" height="10.06"/><rect class="cls-1" x="101.05" y="241.82" width="10.06" height="10.06"/><rect class="cls-1" x="111.11" y="241.82" width="10.06" height="10.06"/><rect class="cls-1" x="121.16" y="241.82" width="10.06" height="10.06"/><rect class="cls-1" x="131.22" y="241.82" width="10.06" height="10.06"/><rect class="cls-1" x="40.72" y="251.88" width="10.06" height="10.06"/><rect class="cls-1" x="50.78" y="251.88" width="10.06" height="10.06"/><rect class="cls-1" x="60.83" y="251.88" width="10.06" height="10.06"/><rect class="cls-1" x="70.89" y="251.88" width="10.06" height="10.06"/><rect class="cls-1" x="80.94" y="251.88" width="10.06" height="10.06"/><rect class="cls-1" x="91" y="251.88" width="10.06" height="10.06"/><rect class="cls-1" x="101.05" y="251.88" width="10.06" height="10.06"/><rect class="cls-1" x="111.11" y="251.88" width="10.06" height="10.06"/><rect class="cls-1" x="50.78" y="261.93" width="10.06" height="10.06"/><rect class="cls-1" x="60.83" y="261.93" width="10.06" height="10.06"/><rect class="cls-1" x="70.89" y="261.93" width="10.06" height="10.06"/><rect class="cls-1" x="80.94" y="261.93" width="10.06" height="10.06"/><rect class="cls-1" x="91" y="261.93" width="10.06" height="10.06"/><rect class="cls-1" x="101.05" y="261.93" width="10.06" height="10.06"/><line class="cls-8" x1="50.78" y1="271.99" x2="60.83" y2="271.99"/><line class="cls-8" x1="60.83" y1="271.99" x2="70.89" y2="271.99"/><line class="cls-8" x1="70.89" y1="271.99" x2="80.94" y2="271.99"/><line class="cls-8" x1="80.94" y1="271.99" x2="91" y2="271.99"/><line class="cls-8" x1="91" y1="271.99" x2="101.05" y2="271.99"/></g></g></svg>