<svg xmlns="http://www.w3.org/2000/svg" viewBox="0 0 211.16 271.49"><defs><style>.cls-1{fill:#ffb867;}.cls-2{fill:#bf8a4d;}.cls-3{fill:#333;}.cls-4{fill:#fff;}.cls-5{fill:#956548;}.cls-6{fill:#0faeff;}</style></defs><title>Thing2</title><g id="Black"><polygon points="80.44 221.21 70.39 221.21 60.33 221.21 60.33 231.27 70.39 231.27 80.44 231.27 90.5 231.27 100.55 231.27 100.55 221.21 90.5 221.21 80.44 221.21"/><rect x="40.22" y="201.1" width="10.06" height="10.06"/><rect x="110.61" y="201.1" width="10.06" height="10.06"/><rect x="50.28" y="211.16" width="10.06" height="10.06"/><rect x="100.55" y="211.16" width="10.06" height="10.06"/></g><g id="Skin"><path class="cls-1" d="M342.72,227.63H332.66v10.06H322.61V298h10.05V288h10.06v-10h10V227.63Zm0,30.17v10.05H332.66V247.74h10.06Z" transform="translate(-141.61 -117.03)"/><path class="cls-1" d="M302.5,187.41V167.3H292.44V157.25H171.78V167.3H161.72v20.11H151.67V308.07h30.16V298h80.45v10.05H302.5V288h10.05V197.47H302.5Zm-10.06,20.11v10.06H282.39V207.52H242.17V197.47h40.22v10.05ZM171.78,237.69V217.58h20.11v10h10.05v20.11H171.78Zm110.61-10.06v20.11H252.22V217.58h20.11v10ZM161.72,197.47h40.22v10.05H212v10.06H201.94V207.52H161.72ZM232.11,288V267.85H222.06V257.8h10.05v10.05h10.06V288Z" transform="translate(-141.61 -117.03)"/></g><g id="Ear_Brown" data-name="Ear Brown"><rect class="cls-2" x="80.44" y="140.77" width="10.06" height="10.06"/><polygon class="cls-2" points="90.5 160.88 90.5 170.94 100.55 170.94 100.55 160.88 100.55 150.83 90.5 150.83 90.5 160.88"/><polygon class="cls-2" points="191.05 130.72 191.05 140.77 191.05 150.83 201.1 150.83 201.1 140.77 201.1 130.72 191.05 130.72"/><polygon class="cls-2" points="0 130.72 0 140.77 0 150.83 0 160.88 0 170.94 10.05 170.94 10.05 160.88 10.05 150.83 10.05 140.77 10.05 130.72 10.05 120.66 0 120.66 0 130.72"/></g><g id="Eye_Grey" data-name="Eye Grey"><rect class="cls-3" x="40.22" y="110.61" width="10.06" height="10.06"/><rect class="cls-3" x="120.66" y="110.61" width="10.06" height="10.06"/></g><g id="White"><polygon class="cls-4" points="90.5 201.1 80.44 201.1 70.39 201.1 60.33 201.1 50.28 201.1 50.28 211.16 60.33 211.16 60.33 221.21 70.39 221.21 80.44 221.21 90.5 221.21 100.55 221.21 100.55 211.16 110.61 211.16 110.61 201.1 100.55 201.1 90.5 201.1"/><polygon class="cls-4" points="50.28 130.72 60.33 130.72 60.33 120.66 60.33 110.61 50.28 110.61 50.28 120.66 50.28 130.72"/><polygon class="cls-4" points="50.28 100.55 40.22 100.55 30.16 100.55 30.16 110.61 40.22 110.61 50.28 110.61 50.28 100.55"/><polygon class="cls-4" points="120.66 100.55 110.61 100.55 110.61 110.61 120.66 110.61 130.72 110.61 130.72 100.55 120.66 100.55"/><polygon class="cls-4" points="130.72 110.61 130.72 120.66 130.72 130.72 140.77 130.72 140.77 120.66 140.77 110.61 130.72 110.61"/></g><g id="Hair_Brown" data-name="Hair Brown"><polygon class="cls-5" points="130.72 80.44 120.66 80.44 110.61 80.44 100.55 80.44 100.55 90.5 110.61 90.5 120.66 90.5 130.72 90.5 140.77 90.5 140.77 80.44 130.72 80.44"/><rect class="cls-5" x="60.33" y="90.5" width="10.06" height="10.06"/><rect class="cls-5" x="140.77" y="90.5" width="10.06" height="10.06"/><polygon class="cls-5" points="50.28 80.44 40.22 80.44 30.16 80.44 20.11 80.44 20.11 90.5 30.16 90.5 40.22 90.5 50.28 90.5 60.33 90.5 60.33 80.44 50.28 80.44"/><path class="cls-5" d="M332.66,167.3V157.25H322.61V137.14H312.55V127.08H302.5V117H171.78v10H161.72v10.06H151.67v50.27h10.05V167.3h10.06V157.25H292.44V167.3H302.5v30.17h10.05V288H302.5v20.11H262.28V298H181.83v10.05H151.67v20.11h10.05v20.11h10.06V368.4h10.05v10.06h10.06v10.06h60.33V378.46h10.06V368.4h20.11v-10h10.05V348.29H302.5V338.24h10.05V328.18h10.06V237.69h10.05V227.63h10.06V167.3ZM191.89,318.13h70.39v10.05H252.22v10.06H242.17v10.05H201.94V338.24H191.89V328.18H181.83V318.13Z" transform="translate(-141.61 -117.03)"/></g><g id="Eye_Blue" data-name="Eye Blue"><polygon class="cls-6" points="120.66 120.66 120.66 110.61 110.61 110.61 110.61 120.66 110.61 130.72 120.66 130.72 130.72 130.72 130.72 120.66 120.66 120.66"/><polygon class="cls-6" points="40.22 110.61 30.16 110.61 30.16 120.66 30.16 130.72 40.22 130.72 50.28 130.72 50.28 120.66 40.22 120.66 40.22 110.61"/></g></svg>