<svg id="Capa_1" enable-background="new 0 0 512 512" height="512" viewBox="0 0 512 512" width="512" xmlns="http://www.w3.org/2000/svg"><path d="m293.67 505.543-197.574-285.147c-4.13-5.96-3.405-14.022 1.723-19.149l42.427-42.427c5.745-5.746 15.018-5.872 20.917-.289l346.147 327.574c4.461 4.222 5.897 10.737 3.625 16.444s-7.794 9.451-13.936 9.451h-191c-4.919 0-9.527-2.413-12.329-6.457z" fill="#ffe951"/><path d="m256 248.28v202.896l37.67 54.367c2.802 4.044 7.41 6.457 12.33 6.457h191c6.142 0 11.664-3.745 13.936-9.451s.835-12.222-3.625-16.444z" fill="#ffc700"/><path d="m206.001 512h-191c-6.142 0-11.664-3.745-13.936-9.451s-.835-12.222 3.625-16.444l346.147-327.574c5.899-5.583 15.172-5.457 20.917.289l42.427 42.427c5.128 5.127 5.853 13.189 1.723 19.149l-197.574 285.147c-2.802 4.044-7.41 6.457-12.329 6.457z" fill="#ffe951"/><path d="m371.754 158.82c-5.745-5.746-15.018-5.872-20.916-.289l-94.838 89.749v202.896l159.904-230.78c4.13-5.96 3.405-14.022-1.723-19.149z" fill="#ffc700"/><path d="m256 451.176 84.909-122.544-84.909-80.352-84.909 80.352z" fill="#ffc700"/><path d="m256 248.28v202.896l84.909-122.544z" fill="#faa000"/><path d="m417.716 240.995c-3.839 0-7.678-1.464-10.606-4.394l-70.711-70.711c-5.858-5.858-5.858-15.355 0-21.213l63.64-63.64c25.344-25.344 66.58-25.343 91.924 0 25.343 25.343 25.343 66.581 0 91.924l-63.64 63.64c-2.929 2.93-6.768 4.394-10.607 4.394z" fill="#3b3b54"/><path d="m461 15v112c0 8.284-6.716 15-15 15s-15-6.716-15-15v-112z" fill="#bedcfa"/><path d="m83.678 236.602-63.64-63.64c-25.343-25.343-25.343-66.581 0-91.924 25.344-25.343 66.58-25.343 91.924 0l63.64 63.64c5.858 5.858 5.858 15.355 0 21.213l-70.711 70.711c-2.929 2.929-6.768 4.394-10.606 4.394s-7.679-1.465-10.607-4.394z" fill="#555582"/><path d="m51 15v112c0 8.284 6.716 15 15 15s15-6.716 15-15v-112z" fill="#dcf0ff"/><path d="m15 30h102c8.284 0 15-6.716 15-15s-6.716-15-15-15h-102c-8.284 0-15 6.716-15 15s6.716 15 15 15z" fill="#555582"/><path d="m497 30h-102c-8.284 0-15-6.716-15-15s6.716-15 15-15h102c8.284 0 15 6.716 15 15s-6.716 15-15 15z" fill="#3b3b54"/></svg>